<svg width="936" height="414" viewBox="0 0 936 414" fill="none" xmlns="http://www.w3.org/2000/svg">
<g filter="url(#filter0_d)">
<rect x="10" y="10" width="916" height="394" fill="black"/>
</g>
<path d="M67 42L43 52.8767V54.2922L52.12 58.12L55.64 68H56.9467L67 42Z" fill="white" fill-opacity="0.12"/>
<path d="M67 216L43 226.877V228.292L52.12 232.12L55.64 242H56.9467L67 216Z" fill="white" fill-opacity="0.12"/>
<path d="M517 42L493 52.8767V54.2922L502.12 58.12L505.64 68H506.947L517 42Z" fill="white" fill-opacity="0.12"/>
<path d="M517 216L493 226.877V228.292L502.12 232.12L505.64 242H506.947L517 216Z" fill="white" fill-opacity="0.12"/>
<path d="M367 42L344 52.8767V54.2922L352.74 58.12L356.113 68H357.366L367 42Z" fill="white" fill-opacity="0.12"/>
<path d="M367 216L344 226.877V228.292L352.74 232.12L356.113 242H357.366L367 216Z" fill="white" fill-opacity="0.12"/>
<path d="M817 43L793 53.04V54.3467L802.12 57.88L805.64 67H806.947L817 43Z" fill="white" fill-opacity="0.12"/>
<path d="M817 217L793 227.04V228.347L802.12 231.88L805.64 241H806.947L817 217Z" fill="white" fill-opacity="0.12"/>
<path d="M217 42L193 52.8767V54.2922L202.12 58.12L205.64 68H206.947L217 42Z" fill="white" fill-opacity="0.12"/>
<path d="M217 216L193 226.877V228.292L202.12 232.12L205.64 242H206.947L217 216Z" fill="white" fill-opacity="0.12"/>
<path d="M667 42L643 52.8767V54.2922L652.12 58.12L655.64 68H656.947L667 42Z" fill="white" fill-opacity="0.12"/>
<path d="M667 216L643 226.877V228.292L652.12 232.12L655.64 242H656.947L667 216Z" fill="white" fill-opacity="0.12"/>
<path d="M142 42L118 52.8767V54.2922L127.12 58.12L130.64 68H131.947L142 42Z" fill="white" fill-opacity="0.12"/>
<path d="M142 216L118 226.877V228.292L127.12 232.12L130.64 242H131.947L142 216Z" fill="white" fill-opacity="0.12"/>
<path d="M592 42L568 52.8767V54.2922L577.12 58.12L580.64 68H581.947L592 42Z" fill="white" fill-opacity="0.12"/>
<path d="M592 216L568 226.877V228.292L577.12 232.12L580.64 242H581.947L592 216Z" fill="white" fill-opacity="0.12"/>
<path d="M442 42L418 52.8767V54.2922L427.12 58.12L430.64 68H431.947L442 42Z" fill="white" fill-opacity="0.12"/>
<path d="M442 216L418 226.877V228.292L427.12 232.12L430.64 242H431.947L442 216Z" fill="white" fill-opacity="0.12"/>
<path d="M892 43L868 53.04V54.3467L877.12 57.88L880.64 67H881.947L892 43Z" fill="white" fill-opacity="0.12"/>
<path d="M892 217L868 227.04V228.347L877.12 231.88L880.64 241H881.947L892 217Z" fill="white" fill-opacity="0.12"/>
<path d="M292 42L268 52.8767V54.2922L277.12 58.12L280.64 68H281.947L292 42Z" fill="white" fill-opacity="0.12"/>
<path d="M292 216L268 226.877V228.292L277.12 232.12L280.64 242H281.947L292 216Z" fill="white" fill-opacity="0.12"/>
<path d="M742 42L718 52.8767V54.2922L727.12 58.12L730.64 68H731.947L742 42Z" fill="white" fill-opacity="0.12"/>
<path d="M742 216L718 226.877V228.292L727.12 232.12L730.64 242H731.947L742 216Z" fill="white" fill-opacity="0.12"/>
<path d="M67 85L43 95.8767V97.2922L52.12 101.12L55.64 111H56.9467L67 85Z" fill="white" fill-opacity="0.12"/>
<path d="M67 260L43 270.458V271.819L52.12 275.5L55.64 285H56.9467L67 260Z" fill="white" fill-opacity="0.12"/>
<path d="M517 85L493 95.8767V97.2922L502.12 101.12L505.64 111H506.947L517 85Z" fill="white" fill-opacity="0.12"/>
<path d="M517 260L493 270.458V271.819L502.12 275.5L505.64 285H506.947L517 260Z" fill="white" fill-opacity="0.12"/>
<path d="M367 85L344 95.8767V97.2922L352.74 101.12L356.113 111H357.366L367 85Z" fill="white" fill-opacity="0.12"/>
<path d="M367 260L344 270.458V271.819L352.74 275.5L356.113 285H357.366L367 260Z" fill="white" fill-opacity="0.12"/>
<path d="M817 86L793 96.04V97.3467L802.12 100.88L805.64 110H806.947L817 86Z" fill="white" fill-opacity="0.12"/>
<path d="M817 260L793 270.04V271.347L802.12 274.88L805.64 284H806.947L817 260Z" fill="white" fill-opacity="0.12"/>
<path d="M217 85L193 95.8767V97.2922L202.12 101.12L205.64 111H206.947L217 85Z" fill="white" fill-opacity="0.12"/>
<path d="M217 260L193 270.458V271.819L202.12 275.5L205.64 285H206.947L217 260Z" fill="white" fill-opacity="0.12"/>
<path d="M667 85L643 95.8767V97.2922L652.12 101.12L655.64 111H656.947L667 85Z" fill="white" fill-opacity="0.12"/>
<path d="M667 260L643 270.458V271.819L652.12 275.5L655.64 285H656.947L667 260Z" fill="white" fill-opacity="0.12"/>
<path d="M67 172L43 183.295V184.765L52.12 188.74L55.64 199H56.9467L67 172Z" fill="white" fill-opacity="0.12"/>
<path d="M67 346L43 356.877V358.292L52.12 362.12L55.64 372H56.9467L67 346Z" fill="white" fill-opacity="0.12"/>
<path d="M517 172L493 183.295V184.765L502.12 188.74L505.64 199H506.947L517 172Z" fill="white" fill-opacity="0.12"/>
<path d="M517 346L493 356.877V358.292L502.12 362.12L505.64 372H506.947L517 346Z" fill="white" fill-opacity="0.12"/>
<path d="M367 172L344 183.295V184.765L352.74 188.74L356.113 199H357.366L367 172Z" fill="white" fill-opacity="0.12"/>
<path d="M367 346L344 356.877V358.292L352.74 362.12L356.113 372H357.366L367 346Z" fill="white" fill-opacity="0.12"/>
<path d="M817 173L793 183.04V184.347L802.12 187.88L805.64 197H806.947L817 173Z" fill="white" fill-opacity="0.12"/>
<path d="M817 347L793 357.04V358.347L802.12 361.88L805.64 371H806.947L817 347Z" fill="white" fill-opacity="0.12"/>
<path d="M217 172L193 183.295V184.765L202.12 188.74L205.64 199H206.947L217 172Z" fill="white" fill-opacity="0.12"/>
<path d="M217 346L193 356.877V358.292L202.12 362.12L205.64 372H206.947L217 346Z" fill="white" fill-opacity="0.12"/>
<path d="M667 172L643 183.295V184.765L652.12 188.74L655.64 199H656.947L667 172Z" fill="white" fill-opacity="0.12"/>
<path d="M667 346L643 356.877V358.292L652.12 362.12L655.64 372H656.947L667 346Z" fill="white" fill-opacity="0.12"/>
<path d="M67 129L43 139.458V140.819L52.12 144.5L55.64 154H56.9467L67 129Z" fill="white" fill-opacity="0.12"/>
<path d="M67 303L43 313.877V315.292L52.12 319.12L55.64 329H56.9467L67 303Z" fill="white" fill-opacity="0.12"/>
<path d="M517 129L493 139.458V140.819L502.12 144.5L505.64 154H506.947L517 129Z" fill="white" fill-opacity="0.12"/>
<path d="M517 303L493 313.877V315.292L502.12 319.12L505.64 329H506.947L517 303Z" fill="white" fill-opacity="0.12"/>
<path d="M367 129L344 139.458V140.819L352.74 144.5L356.113 154H357.366L367 129Z" fill="white" fill-opacity="0.12"/>
<path d="M367 303L344 313.877V315.292L352.74 319.12L356.113 329H357.366L367 303Z" fill="white" fill-opacity="0.12"/>
<path d="M817 130L793 140.04V141.347L802.12 144.88L805.64 154H806.947L817 130Z" fill="white" fill-opacity="0.12"/>
<path d="M817 304L793 314.04V315.347L802.12 318.88L805.64 328H806.947L817 304Z" fill="white" fill-opacity="0.12"/>
<path d="M217 129L193 139.458V140.819L202.12 144.5L205.64 154H206.947L217 129Z" fill="white" fill-opacity="0.12"/>
<path d="M217 303L193 313.877V315.292L202.12 319.12L205.64 329H206.947L217 303Z" fill="white" fill-opacity="0.12"/>
<path d="M667 129L643 139.458V140.819L652.12 144.5L655.64 154H656.947L667 129Z" fill="white" fill-opacity="0.12"/>
<path d="M667 303L643 313.877V315.292L652.12 319.12L655.64 329H656.947L667 303Z" fill="white" fill-opacity="0.12"/>
<path d="M142 85L118 95.8767V97.2922L127.12 101.12L130.64 111H131.947L142 85Z" fill="white" fill-opacity="0.12"/>
<path d="M142 260L118 270.458V271.819L127.12 275.5L130.64 285H131.947L142 260Z" fill="white" fill-opacity="0.12"/>
<path d="M592 85L568 95.8767V97.2922L577.12 101.12L580.64 111H581.947L592 85Z" fill="white" fill-opacity="0.12"/>
<path d="M592 260L568 270.458V271.819L577.12 275.5L580.64 285H581.947L592 260Z" fill="white" fill-opacity="0.12"/>
<path d="M442 85L418 95.8767V97.2922L427.12 101.12L430.64 111H431.947L442 85Z" fill="white" fill-opacity="0.12"/>
<path d="M442 260L418 270.458V271.819L427.12 275.5L430.64 285H431.947L442 260Z" fill="white" fill-opacity="0.12"/>
<path d="M892 86L868 96.04V97.3467L877.12 100.88L880.64 110H881.947L892 86Z" fill="white" fill-opacity="0.12"/>
<path d="M892 260L868 270.04V271.347L877.12 274.88L880.64 284H881.947L892 260Z" fill="white" fill-opacity="0.12"/>
<path d="M292 85L268 95.8767V97.2922L277.12 101.12L280.64 111H281.947L292 85Z" fill="white" fill-opacity="0.12"/>
<path d="M292 260L268 270.458V271.819L277.12 275.5L280.64 285H281.947L292 260Z" fill="white" fill-opacity="0.12"/>
<path d="M742 85L718 95.8767V97.2922L727.12 101.12L730.64 111H731.947L742 85Z" fill="white" fill-opacity="0.12"/>
<path d="M742 260L718 270.458V271.819L727.12 275.5L730.64 285H731.947L742 260Z" fill="white" fill-opacity="0.12"/>
<path d="M142 129L118 139.458V140.819L127.12 144.5L130.64 154H131.947L142 129Z" fill="white" fill-opacity="0.12"/>
<path d="M142 303L118 313.877V315.292L127.12 319.12L130.64 329H131.947L142 303Z" fill="white" fill-opacity="0.12"/>
<path d="M592 129L568 139.458V140.819L577.12 144.5L580.64 154H581.947L592 129Z" fill="white" fill-opacity="0.12"/>
<path d="M592 303L568 313.877V315.292L577.12 319.12L580.64 329H581.947L592 303Z" fill="white" fill-opacity="0.12"/>
<path d="M442 129L418 139.458V140.819L427.12 144.5L430.64 154H431.947L442 129Z" fill="white" fill-opacity="0.12"/>
<path d="M442 303L418 313.877V315.292L427.12 319.12L430.64 329H431.947L442 303Z" fill="white" fill-opacity="0.12"/>
<path d="M892 130L868 140.04V141.347L877.12 144.88L880.64 154H881.947L892 130Z" fill="white" fill-opacity="0.12"/>
<path d="M892 304L868 314.04V315.347L877.12 318.88L880.64 328H881.947L892 304Z" fill="white" fill-opacity="0.12"/>
<path d="M292 129L268 139.458V140.819L277.12 144.5L280.64 154H281.947L292 129Z" fill="white" fill-opacity="0.12"/>
<path d="M292 303L268 313.877V315.292L277.12 319.12L280.64 329H281.947L292 303Z" fill="white" fill-opacity="0.12"/>
<path d="M742 129L718 139.458V140.819L727.12 144.5L730.64 154H731.947L742 129Z" fill="white" fill-opacity="0.12"/>
<path d="M742 303L718 313.877V315.292L727.12 319.12L730.64 329H731.947L742 303Z" fill="white" fill-opacity="0.12"/>
<path d="M142 172L118 183.295V184.765L127.12 188.74L130.64 199H131.947L142 172Z" fill="white" fill-opacity="0.12"/>
<path d="M142 346L118 356.877V358.292L127.12 362.12L130.64 372H131.947L142 346Z" fill="white" fill-opacity="0.12"/>
<path d="M592 172L568 183.295V184.765L577.12 188.74L580.64 199H581.947L592 172Z" fill="white" fill-opacity="0.12"/>
<path d="M592 346L568 356.877V358.292L577.12 362.12L580.64 372H581.947L592 346Z" fill="white" fill-opacity="0.12"/>
<path d="M442 172L418 183.295V184.765L427.12 188.74L430.64 199H431.947L442 172Z" fill="white" fill-opacity="0.12"/>
<path d="M442 346L418 356.877V358.292L427.12 362.12L430.64 372H431.947L442 346Z" fill="white" fill-opacity="0.12"/>
<path d="M892 173L868 183.04V184.347L877.12 187.88L880.64 197H881.947L892 173Z" fill="white" fill-opacity="0.12"/>
<path d="M892 347L868 357.04V358.347L877.12 361.88L880.64 371H881.947L892 347Z" fill="white" fill-opacity="0.12"/>
<path d="M292 172L268 183.295V184.765L277.12 188.74L280.64 199H281.947L292 172Z" fill="white" fill-opacity="0.12"/>
<path d="M292 346L268 356.877V358.292L277.12 362.12L280.64 372H281.947L292 346Z" fill="white" fill-opacity="0.12"/>
<path d="M742 172L718 183.295V184.765L727.12 188.74L730.64 199H731.947L742 172Z" fill="white" fill-opacity="0.12"/>
<path d="M742 346L718 356.877V358.292L727.12 362.12L730.64 372H731.947L742 346Z" fill="white" fill-opacity="0.12"/>
<defs>
<filter id="filter0_d" x="0" y="0" width="936" height="414" filterUnits="userSpaceOnUse" color-interpolation-filters="sRGB">
<feFlood flood-opacity="0" result="BackgroundImageFix"/>
<feColorMatrix in="SourceAlpha" type="matrix" values="0 0 0 0 0 0 0 0 0 0 0 0 0 0 0 0 0 0 127 0"/>
<feOffset/>
<feGaussianBlur stdDeviation="5"/>
<feColorMatrix type="matrix" values="0 0 0 0 0 0 0 0 0 0 0 0 0 0 0 0 0 0 0.26 0"/>
<feBlend mode="normal" in2="BackgroundImageFix" result="effect1_dropShadow"/>
<feBlend mode="normal" in="SourceGraphic" in2="effect1_dropShadow" result="shape"/>
</filter>
</defs>
</svg>
